<svg xmlns="http://www.w3.org/2000/svg" width="1024" height="1024" viewBox="0 0 1024 1024"><path fill="#07f3e6" d="M594.413 605.282c-26.529 13.153-61.392 19.215-90.948 17.51a201.83 201.83 0 0 1-139.661-68.19 200.96 200.96 0 0 1-49.58-143.939 198.4 198.4 0 0 1 66.009-135.871c30.371-26.789 62.287-42.292 102.087-49.003 6.03-1.016 21.582-3.694 27.237-3.312l-.746.551c-3.755 2.942-9.335 6.097-13.443 8.78a76 76 0 0 0-4.007 2.728c-.795.505-.89.525-1.535 1.09-2.187 1.294-4.361 2.829-6.59 4.201-1.118.629-2.236 1.241-3.285 1.98a216 216 0 0 0-8.21 4.582c-5.693 3.326-9.871 5.927-15.222 9.902a395 395 0 0 0 .02 15.246l-.008 2.499c-.128 5.009-.062 3.707 5.219 3.891 2.683.094 5.431-.064 8.134-.031l.132 6.665c-2.172.06-6.473 2.092-8.684 3.076-18.536 8.255-35.355 19.783-49.543 34.301-.503.514-1.635 1.714-1.985 2.222-1.196 1.219-5.27 5.655-6.031 6.851-1.843 1.939-4.176 4.952-5.792 7.15-.815 1.294-1.545 2.134-2.399 3.345-4.313 6.21-7.929 11.497-11.454 18.281-13.41 25.812-18.694 58.468-13.596 87.223a147 147 0 0 0 62.12 94.689c42.804 29.449 89.998 34.224 138.553 17.55 1.566 6.258 3.881 9.004 5.871 14.278l.959-.398c1.622 2.652 3.254 6.372 4.742 9.279 2.984 5.828 5.918 10.752 9.322 16.278-.445.199-.971.402-1.381.649 1.405 1.686 2.592 4.006 3.695 5.947"/><path fill="#fff" d="M578.035 573.129c1.622 2.652 3.254 6.372 4.742 9.279 2.984 5.828 5.918 10.752 9.322 16.278-.445.199-.971.402-1.381.649-3.24-3.306-12.169-20.99-13.642-25.808z"/><path fill="#1a2b4a" d="M513.938 222.428c12.98 1.836 25.242 3.063 38.136 6.096a196.83 196.83 0 0 1 113.935 73.884c33.666 44.863 45.483 93.712 38.196 149.286-4.322 32.962-19.572 70.697-41.289 96.309-7.409-19.801-17.892-29.013-38.306-34.732l-.098-.908c4.549-5.349 9.699-13.932 12.915-20.261a151.5 151.5 0 0 0 8.225-114.93c-12.338-37.197-42.538-69.042-77.593-86.177-5.067-2.477-10.304-4.506-15.39-7.041l-.197-5.438.276-.549c1.689-.778 5.523-.37 7.791-.439q2.58.002 5.149.22c-.03-2.198-.003-3.982-.219-6.197l.068-1.052-.031-.365c.38-4.345.058-8.819.484-13.109-1.284-1.498-8.819-6.244-10.761-7.279-1.607-1.146-4.594-3.102-6.262-3.945l-.152-.237a74 74 0 0 1-2.476-1.718c-5.416-3.502-11.366-7.74-16.886-10.947-2.151-1.455-4.644-3.171-6.838-4.518-2.866-2.029-5.871-3.93-8.677-5.953"/><path fill="#1a2b4a" d="M570.776 306.097c28.839 16.819 51.118 41.448 62.183 73.274 12.895 37.089 9.173 80.8-10.891 114.657a132 132 0 0 1-6.616 10.028c-1.159 1.545-2.453 3.222-3.563 4.781-.793.775-1.141 1.21-1.732 2.135-.278.368-.62.8-.878 1.175-4.544 4.42-7.401 7.525-12.378 11.718-6.493-12.09-11.268-16.731-20.789-25.979-.994-4.474-1.627-9.164-2.318-13.706 3.14-3.858 6.118-6.903 9.077-11.118a85.3 85.3 0 0 0 15.096-50.939c-.541-18.147-7.339-37.71-18.682-52-4.556-5.74-11.926-12.367-17.4-17.533-.26-2.078-.304-4.324-.394-6.428 2.787-3.268 6.217-6.697 9.176-10.117l-.14-23.513c.049-2.454-.141-4.025.249-6.435m-120.572 1.118c.237 1.694.208 4.302.25 6.087l-.025 1.15.061 2.547-.038 2.468c-.022 5.53-.171 11.647-.04 17.13 2.423 3.298 5.806 6.356 8.782 9.205-.622 3.956-1.016 7.699-1.434 11.684-19.302 17.626-30.484 35.672-31.798 62.53-1.097 22.445 4.672 40.29 17.93 58.339l-6.355 52.063c-26.328-18.468-48.206-51.319-53.436-83.099-5.893-35.814-.207-62.809 17.716-93.863.726-.68 1.93-2.702 2.439-3.556l.454-.068c1.41-2.433 3.091-4.254 4.345-6.373 12.749-16.044 24.351-25.446 41.149-36.244m71.221 106.021c12.039-.337 20.741.376 32.601 2.008.596 3.856 1.035 8.345 1.34 12.236 1.759 22.375 4.898 44.801 6.761 67.129-31.024-2.759-50.591-2.021-80.725 7.354-11.38 3.888-18.975 7.079-29.941 12.137l6.872-57.008c1.003-8.108 1.803-17.755 3.207-25.568 3.287-2.288 8.086-4.325 11.782-6.06 17.316-8.128 29.153-11.15 48.103-12.228m-20.742-78.529c13.943-1.469 35.567 1.246 48.819 4.889-.022 21.713 1.805 42.501 3.626 64.111-16.205-2.522-33.566-3.412-49.673-.015-13.731 2.496-28.354 8.68-40.63 15.114 1.123-6.797 1.959-16.371 2.847-23.453a2006 2006 0 0 0 6.396-56.075c8.042-2.365 20.274-3.841 28.615-4.571m27.573 169.503c9.517-1.101 26.341.59 35.63 1.711a1128 1128 0 0 0 4.69 41.159c-27.551 9.729-47.108 12.231-76.113 7.279-15.539-2.531-29.812-9.482-44.134-15.789.242-4.511.489-7.628 1.241-12.046 5.66-2.998 11.426-5.015 17.231-7.501 20.898-8.95 38.923-13.024 61.455-14.813m-17.353-268.949c9.54 5.662 19.102 12.299 28.651 18.093l.427.264a82 82 0 0 0 2.727 1.708l.25.238c2.216 1.501 4.855 3.032 7.158 4.514 4.712 3.216 3.182 2.322 3.052 8.583-1.595-.564-3.209-1.027-4.829-1.507-2.091-.695-4.23-1.229-6.344-1.847l-.113 8.153c-.064 1.225-.074 1.201.135 2.446l-.259 21.115a559 559 0 0 1 16.821 5.3c.723.606.561 11.294.931 13.429.43 2.479-.567 8.229-.48 11.537.012 1.399.003 1.557-.261 2.929-2.592 1.344-5.643-.908-8.962-1.808a169.7 169.7 0 0 0-30.932-5.131c-18.58-1.27-39.42 1.704-56.675 8.758l-.142-17.153c.025-1.027.018-1.883.006-2.906q.074-1.682.103-3.364l-.085-5.412c6.104-2.212 12.017-4.396 18.234-6.279 2.071-.562 4.682-1.163 6.781-1.483l.869-.146c1.198-.214 4.947-.719 5.868-1.098 10.195-.774 19.889-1.507 30.167-.42 1.532.162 2.125.158 3.663.109 2.391.37 4.475.861 6.802 1.424-.062-2.415-.175-4.357-.327-6.757 1.2-4.75-.185-17.405.072-22.801.011-.223.168-1.849-.218-1.927-3.925-.796-7.903-1.192-11.919-1.466-4.561-.49-11.387-.419-16.07-.311a52 52 0 0 0-5.716.278c-2.939.214-4.731.49-7.497.767-1.63.264-3.198.402-4.771.667-2.783.917-5.245 1.029-8.077 1.605-1.594.46-3.212.935-4.848 1.223-2.267.767-4.028 1.566-6.218 2.357-.149-2.686-.149-4.478-.067-7.162 8.803-4.687 15.37-9.73 23.733-14.699 2.453-1.599 17.397-10.749 18.36-11.82"/><path fill="#fff" fill-opacity=".008" d="m542.017 275.906 1.13 1.02c.042.614.455 4.959.654 5.576.888 2.333-.434 6.227 1.106 8.054.418.496 4.358.582 5.032-.117 4.154-4.315-2.408-8.246.978-10.078.526-.285.745-1.196.921-1.68l.634-.165.197 5.438c5.086 2.535 10.323 4.564 15.39 7.041 35.055 17.135 65.255 48.98 77.593 86.177a151.5 151.5 0 0 1-8.225 114.93c-3.216 6.329-8.366 14.912-12.915 20.261l-.815-1.02-.054-.251c-.548-1.882-2.776-4.144-4.201-5.527-1.735-1.684-1.478-1.434-3.99-1.509a132 132 0 0 0 6.616-10.028c20.064-33.857 23.786-77.568 10.891-114.657-11.065-31.826-33.344-56.455-62.183-73.274-.064-.24-.06-.35-.208-.539.45-3.191.318-4.881.344-8.1-6.281-1.82-11.295-5.417-11.464 4.425l-.869.438a559 559 0 0 0-16.821-5.3z"/><path fill="#07f3e6" fill-opacity=".988" d="M594 563.044c-1.654-9.884-.616-18.675 5.305-27.216a25.23 25.23 0 0 1 33.102-7.677c.361.201.577.713.761 1.073-1.098 2.018-17.544 15.513-20.334 17.825 3.598 5.519 10.722 17.03 14.931 21.651l.536.598c7.691-6.017 16.362-11.489 23.529-17.183.568 10.18.69 17.205-6.383 25.635-8.545 10.185-21.562 10.555-33.515 7.511-7.811 3.743-14.488 10.761-19.833 13.425-3.404-5.526-6.338-10.45-9.322-16.278-1.488-2.907-3.12-6.627-4.742-9.279 6.382-3.51 10.348-5.491 15.965-10.085"/><path fill="#fff" fill-opacity=".776" d="M533.15 274.833c1.251 2.901.7 3.789.087 6.723l-.101.496c-1.263-2.666-.817-4.555.014-7.219"/><path fill="#07f3e6" fill-opacity=".988" d="M488.02 263.757c-.082 1.809-.071 3.091-.011 4.906a1485 1485 0 0 0-.097 18.033c-.035 3.015-.048 5.576.054 8.596l-.869.146c-2.099.32-4.71.921-6.781 1.483-.211-3.189-.128-6.285-.334-9.385a310 310 0 0 0-.037-11.035l.11-1.372c-.143-3.113-.08-6.604-.112-9.767 2.832-.576 5.294-.688 8.077-1.605"/><path fill="#fff" fill-opacity=".259" d="M559.448 301.883c1.035-.928 1.097-1.95 1.3-2.27 1.537-2.422 5.481 1.728-1.147 3.302-.007 2.69-.349 4.397.228 6.947 3.4-1.268 2.005.121 4.13.093 2.915-1.991 2.838-11.331 6.609-4.397.148.189.144.299.208.539-.39 2.41-.2 3.981-.249 6.435-.068-.154-.649-1.64-.765-1.718-.261.282-.424.679-.6 1.032-2.165 4.683-3.729 10.103-7.179 14.086-.392.452-1.159-.647-2.351.245l-.602 1.11c-.087-3.308.91-9.058.48-11.537-.37-2.135-.208-12.823-.931-13.429z"/><path fill="#fff" fill-opacity=".51" d="M489.336 239.926a2.288 2.288 0 1 1 2.102 4.065 2.288 2.288 0 0 1-2.102-4.065"/><path fill="#fff" fill-opacity=".463" d="M409.804 324.16c.559 1.314.297 2.032.93 3.671 1.116 2.888 1.621 8.249-.202 10.92-.77 1.129-1.318 3.467-1.477 4.708-1.254 2.119-2.935 3.94-4.345 6.373-1.26-4.497-4.348-4.25-.54-9.835.962-1.411-.447-6.373-.397-8.986.761-1.196 4.835-5.632 6.031-6.851"/><path fill="#fff" fill-opacity=".71" d="m549.008 270.103.338.659c2.269 4.69 5.994.551 7.956-2.08 1.755-2.352.686.676 2.922-1.024.217.316.382.664.572.997.379.665 1.732 1.619 2.455 1.815.697.188 1.597.055 2.286.029l-.068 1.052c-5.803 2.47-6.241-2.124-4.93 5.977-2.268.069-6.102-.339-7.791.439-1.344-3.763-5.306.644-3.74-7.864"/><path fill="#fff" fill-opacity=".122" d="M569.162 311.846c.231 6.017-2.984 11.386-1.157 15.409a4.73 4.73 0 0 1 .041 3.746c-.586 1.436-1.037 1.629-2.271 2.127-5.182 2.094-3.499-4.479-6.143-6.951 1.192-.892 1.959.207 2.351-.245 3.45-3.983 5.014-9.403 7.179-14.086"/><path fill="#fff" fill-opacity=".596" d="M450.454 313.302c.905-2.328 2.592-7.296.3-9.463-3.427-3.002 2.498-5.238 4.009-3.592 1.982 2.161 1.799 10.938 7.404 8.365a126 126 0 0 1-.103 3.364c-4.98 1.718-2.561-.802-6.821-1.79-.534-.124-3.581 3.231-4.814 4.266z"/><path fill="#fff" fill-opacity=".125" d="M397.981 338.161c1.829 1.599 2.639 1.273 2.307 3.615-1.068 7.525-1.392 4.605 3.968 8.124-.509.854-1.713 2.876-2.439 3.556-.962-.632-1.202-1.042-2.15-.272-1.95-1.304-1.347-.157-3.338-.435l.007-.01c-1.111-2.819 3.18-5.333-.393-5.657.482-2.867.688-2.973-.361-5.576.854-1.211 1.584-2.051 2.399-3.345"/><path fill="#fff" fill-opacity=".322" d="M611.067 515.165c2.308-.813 1.925-3.84 6.661-4.041.901-.038 2.991-1.38 3.403.778-1.156 5.478 1.225 6.886 2.633.455l-.067-1.014.815 1.02.098.908c-.896 2.233-.802 3.005-2.496 5.007-2.079-.268-4.162-.314-6.24-.525-3.981-.404-4.482 1.456-4.807-2.588"/><path fill="#fff" fill-opacity=".682" d="M479.982 287.536c-.664-.261-.645-.035-.944-.632-.515-1.117-1.883 1.917-2.549 1.118-2.143-2.569-5.85-10.77-.119-11.758 1.331-.23 1.612.977 2.423.947.665-.709.267-.388 1.152-.71q.117 5.518.037 11.035m-3.149-1.206c1.826-1.985 2.324-7.423-.733-9.16l-.491.523c-2.607 2.547-.344 5.777 1.224 8.637"/><path fill="#fff" fill-opacity=".616" d="M476.1 277.17c3.057 1.737 2.559 7.175.733 9.16-1.568-2.86-3.831-6.09-1.224-8.637z"/><path fill="#fff" fill-opacity=".216" d="M450.429 314.452c1.233-1.035 4.28-4.39 4.814-4.266 4.26.988 1.841 3.508 6.821 1.79a76 76 0 0 1-.006 2.906c-1.899-2.224-1.301 4.846-1.294 5.485-.077.136-1.034 2.399-1.492 1.988s-.761-2.552-.773-3.111c-.042-1.956-1.414-5.36-3.804-3.379-1.727 1.377-2.022 1.65-4.205 1.134z"/><path fill="#fff" fill-opacity=".302" d="M403.773 331.011c-.05 2.613 1.359 7.575.397 8.986-3.808 5.585-.72 5.338.54 9.835l-.454.068c-5.36-3.519-5.036-.599-3.968-8.124.332-2.342-.478-2.016-2.307-3.615 1.616-2.198 3.949-5.211 5.792-7.15"/><path fill="#fff" fill-opacity=".678" d="M506.004 262.045c4.683-.108 11.509-.179 16.07.311-.457.101-4.299.794-4.508.872l-.002.052c.165.174.458.29.655.393-2.47.73-3.547-.312-5.719-.269-.799.015-7.281 1.082-7.47 1.25-5.063 4.536 6.525 3.882 8.497 3.885l1.141-1.218c.687-.741 1.081-1.644 1.649-2.242l-.07-.106c.295-.702 1.492.575 1.75.777-4.661 5.342-2.944 4.851-11.228 4.289-7.113-.481-.357-3.898-5.049-4.682l.021.087-.022-.062c.024-.031 2.732-1.472 3.269-1.866.915.069 1.279.113 2.193.004l.331-.278.115.022c-.079-.212-1.52-1.15-1.623-1.219"/><path fill="#fff" fill-opacity=".639" d="M513.527 268.539c-1.972-.003-13.56.651-8.497-3.885.189-.168 6.671-1.235 7.47-1.25 2.172-.043 3.249.999 5.719.269.034.954-.03 1.089-.222 2.077-.258-.202-1.455-1.479-1.75-.777l.07.106c-.568.598-.962 1.501-1.649 2.242z"/><path fill="#fff" fill-opacity=".757" d="M548.967 245.801c1.668.843 4.655 2.799 6.262 3.945-3.441 3.812-1.869 7.318-5.113 10.332-2.303-1.482-4.942-3.013-7.158-4.514 4.046-4.196 6.034 2.226 6.822 2.726l.036-.01c1.684-2.701.162-3.948 1.962-6.813 1.179-1.878-5.277-.797-2.811-5.666"/><path fill="#fff" fill-opacity=".816" d="M565.506 270.134c-4.198-.358-3.539-5.158-4.551-8.855.013.047.467-3.487.56-3.633.303-.475 3.951-.554 4.475-.621-.426 4.29-.104 8.764-.484 13.109"/><path fill="#fff" fill-opacity=".169" d="M611.889 508.837c4.357 1.272 4.183-4.147 6.833-1.575 1.894 1.838 1.187 3.257 4.921 3.83l.054.251.067 1.014c-.966-.067-1.678-.254-2.633-.455-.412-2.158-2.502-.816-3.403-.778-4.736.201-4.353 3.228-6.661 4.041-.432-.87-.815-3.19-.91-4.193.591-.925.939-1.36 1.732-2.135"/><path fill="#fff" fill-opacity=".616" d="M487.912 286.696c3.522 1.886 3.78.425 7.421 1.358 1.562.925-2.766 1.333-3.077 1.18-.566-.159-3.063.633-2.116 1.626 1.218 1.277 5.01-1.472 5.128-1.417 2.48 1.149-1.515 1.872-1.434 4.751-.921.379-4.67.884-5.868 1.098-.102-3.02-.089-5.581-.054-8.596"/><path fill="#fff" fill-opacity=".027" d="M610.157 510.972c.095 1.003.478 3.323.91 4.193.325 4.044.826 2.184 4.807 2.588 2.078.211 4.161.257 6.24.525-.25.28-1.262 1.768-1.418 1.778-1.521.104-11.774.433-12.159-.328.248-1.287.556-5.92.742-7.581.258-.375.6-.807.878-1.175"/><path fill="#fff" fill-opacity=".486" d="M479.951 241.807c1.049-.739 2.167-1.351 3.285-1.98l-.047 1.017c.035.472.097 2.723.389 3.167.894 1.355-1.435 7.846-3.828 6.241-7.054-4.73 2.36-1.903.201-8.445"/><path fill="#fff" fill-opacity=".102" d="M527.664 293.883c.091-.263.522-2.701.462-2.937-.45-1.768 5.94-2.431 6.013-2.396.152 2.4.265 4.342.327 6.757-2.327-.563-4.411-1.054-6.802-1.424"/><path fill="#fff" fill-opacity=".059" d="M565.469 271.551c.216 2.215.189 3.999.219 6.197a61 61 0 0 0-5.149-.22c-1.311-8.101-.873-3.507 4.93-5.977"/><path fill="#fff" fill-opacity=".051" d="M615.452 504.056c2.512.075 2.255-.175 3.99 1.509 1.425 1.383 3.653 3.645 4.201 5.527-3.734-.573-3.027-1.992-4.921-3.83-2.65-2.572-2.476 2.847-6.833 1.575 1.11-1.559 2.404-3.236 3.563-4.781"/><path fill="#fff" fill-opacity=".773" d="M475.095 266.585c1.636-.288 3.254-.763 4.848-1.223.032 3.163-.031 6.654.112 9.767-1.872.256-.815 1.112-2.351-.207.238-.982 1.08-2.826.463-3.714-.027.255-.021.565-.242.737-.351-.526-.855-1.977-1.372-2.194-1.877-.79.728-.98-1.458-3.166"/><path fill="#fff" fill-opacity=".455" d="M488.02 263.757c1.573-.265 3.141-.403 4.771-.667-.368 4.891-.877 4.269-4.782 5.573-.06-1.815-.071-3.097.011-4.906"/><path fill="#fff" fill-opacity=".525" d="M456.539 271.537c.215-1.092.389-2.163.711-3.226l.011.017c.894.388 4.889 4.424 2.665 6.094-1.349 1.014-2.44.946-3.395-.386z"/><path fill="#fff" fill-opacity=".09" d="M559.601 302.915c2.665 2.577 2.964 3.675.228 6.947-.577-2.55-.235-4.257-.228-6.947"/><path fill="#fff" fill-opacity=".612" d="M491.361 234.536a76 76 0 0 1 4.007-2.728l-.021.503c-.005 5.068-.635 3.786-3.986 2.225"/><path fill="#fff" fill-opacity=".573" d="M621.131 511.902c.955.201 1.667.388 2.633.455-1.408 6.431-3.789 5.023-2.633-.455"/><path fill="#fff" fill-opacity=".749" d="M546.339 243.846a74 74 0 0 0 2.476 1.718c-1.023 1.772-3.049 1.864-4.243.584l.011-.168c.23-.233.463-.214.774-.237.058-.05.779-1.582.982-1.897"/><path fill="#fff" fill-opacity=".706" d="M500.288 262.323a52 52 0 0 1 5.716-.278c.103.069 1.544 1.007 1.623 1.219l-.115-.022-.331.278c-.914.109-1.278.065-2.193-.004-2.113-.729-2.525-.708-4.7-1.193"/><path fill="#fff" fill-opacity=".667" d="M539.981 253.618c1.611-1.816 4.374-.47 2.727 1.708a82 82 0 0 1-2.727-1.708"/></svg>