<svg width="405" height="405" xmlns="http://www.w3.org/2000/svg">

 <g>
  <title>Layer 1</title>
  <g>
   <path d="m286.82727,385.03119c-26.529,13.153 -61.392,19.215 -90.948,17.51a201.83,201.83 0 0 1 -139.661,-68.19a200.96,200.96 0 0 1 -49.58,-143.939a198.4,198.4 0 0 1 66.009,-135.871c30.371,-26.789 62.287,-42.292 102.087,-49.003c6.03,-1.016 21.582,-3.694 27.237,-3.312l-0.746,0.551c-3.755,2.942 -9.335,6.097 -13.443,8.78a76,76 0 0 0 -4.007,2.728c-0.795,0.505 -0.89,0.525 -1.535,1.09c-2.187,1.294 -4.361,2.829 -6.59,4.201c-1.118,0.629 -2.236,1.241 -3.285,1.98a216,216 0 0 0 -8.21,4.582c-5.693,3.326 -9.871,5.927 -15.222,9.902a395,395 0 0 0 0.02,15.246l-0.008,2.499c-0.128,5.009 -0.062,3.707 5.219,3.891c2.683,0.094 5.431,-0.064 8.134,-0.031l0.132,6.665c-2.172,0.06 -6.473,2.092 -8.684,3.076c-18.536,8.255 -35.355,19.783 -49.543,34.301c-0.503,0.514 -1.635,1.714 -1.985,2.222c-1.196,1.219 -5.27,5.655 -6.031,6.851c-1.843,1.939 -4.176,4.952 -5.792,7.15c-0.815,1.294 -1.545,2.134 -2.399,3.345c-4.313,6.21 -7.929,11.497 -11.454,18.281c-13.41,25.812 -18.694,58.468 -13.596,87.223a147,147 0 0 0 62.12,94.689c42.804,29.449 89.998,34.224 138.553,17.55c1.566,6.258 3.881,9.004 5.871,14.278l0.959,-0.398c1.622,2.652 3.254,6.372 4.742,9.279c2.984,5.828 5.918,10.752 9.322,16.278c-0.445,0.199 -0.971,0.402 -1.381,0.649c1.405,1.686 2.592,4.006 3.695,5.947" fill="#07f3e6"/>
   <path d="m270.44927,352.87819c1.622,2.652 3.254,6.372 4.742,9.279c2.984,5.828 5.918,10.752 9.322,16.278c-0.445,0.199 -0.971,0.402 -1.381,0.649c-3.24,-3.306 -12.169,-20.99 -13.642,-25.808l0.959,-0.398z" fill="#fff"/>
   <path d="m206.35227,2.17719c12.98,1.836 25.242,3.063 38.136,6.096a196.83,196.83 0 0 1 113.935,73.884c33.666,44.863 45.483,93.712 38.196,149.286c-4.322,32.962 -19.572,70.697 -41.289,96.309c-7.409,-19.801 -17.892,-29.013 -38.306,-34.732l-0.098,-0.908c4.549,-5.349 9.699,-13.932 12.915,-20.261a151.5,151.5 0 0 0 8.225,-114.93c-12.338,-37.197 -42.538,-69.042 -77.593,-86.177c-5.067,-2.477 -10.304,-4.506 -15.39,-7.041l-0.197,-5.438l0.276,-0.549c1.689,-0.778 5.523,-0.37 7.791,-0.439q2.58,0.002 5.149,0.22c-0.03,-2.198 -0.003,-3.982 -0.219,-6.197l0.068,-1.052l-0.031,-0.365c0.38,-4.345 0.058,-8.819 0.484,-13.109c-1.284,-1.498 -8.819,-6.244 -10.761,-7.279c-1.607,-1.146 -4.594,-3.102 -6.262,-3.945l-0.152,-0.237a74,74 0 0 1 -2.476,-1.718c-5.416,-3.502 -11.366,-7.74 -16.886,-10.947c-2.151,-1.455 -4.644,-3.171 -6.838,-4.518c-2.866,-2.029 -5.871,-3.93 -8.677,-5.953" fill="#1a2b4a"/>
   <path d="m263.19027,85.84619c28.839,16.819 51.118,41.448 62.183,73.274c12.895,37.089 9.173,80.8 -10.891,114.657a132,132 0 0 1 -6.616,10.028c-1.159,1.545 -2.453,3.222 -3.563,4.781c-0.793,0.775 -1.141,1.21 -1.732,2.135c-0.278,0.368 -0.62,0.8 -0.878,1.175c-4.544,4.42 -7.401,7.525 -12.378,11.718c-6.493,-12.09 -11.268,-16.731 -20.789,-25.979c-0.994,-4.474 -1.627,-9.164 -2.318,-13.706c3.14,-3.858 6.118,-6.903 9.077,-11.118a85.3,85.3 0 0 0 15.096,-50.939c-0.541,-18.147 -7.339,-37.71 -18.682,-52c-4.556,-5.74 -11.926,-12.367 -17.4,-17.533c-0.26,-2.078 -0.304,-4.324 -0.394,-6.428c2.787,-3.268 6.217,-6.697 9.176,-10.117l-0.14,-23.513c0.049,-2.454 -0.141,-4.025 0.249,-6.435m-120.572,1.118c0.237,1.694 0.208,4.302 0.25,6.087l-0.025,1.15l0.061,2.547l-0.038,2.468c-0.022,5.53 -0.171,11.647 -0.04,17.13c2.423,3.298 5.806,6.356 8.782,9.205c-0.622,3.956 -1.016,7.699 -1.434,11.684c-19.302,17.626 -30.484,35.672 -31.798,62.53c-1.097,22.445 4.672,40.29 17.93,58.339l-6.355,52.063c-26.328,-18.468 -48.206,-51.319 -53.436,-83.099c-5.893,-35.814 -0.207,-62.809 17.716,-93.863c0.726,-0.68 1.93,-2.702 2.439,-3.556l0.454,-0.068c1.41,-2.433 3.091,-4.254 4.345,-6.373c12.749,-16.044 24.351,-25.446 41.149,-36.244m71.221,106.021c12.039,-0.337 20.741,0.376 32.601,2.008c0.596,3.856 1.035,8.345 1.34,12.236c1.759,22.375 4.898,44.801 6.761,67.129c-31.024,-2.759 -50.591,-2.021 -80.725,7.354c-11.38,3.888 -18.975,7.079 -29.941,12.137l6.872,-57.008c1.003,-8.108 1.803,-17.755 3.207,-25.568c3.287,-2.288 8.086,-4.325 11.782,-6.06c17.316,-8.128 29.153,-11.15 48.103,-12.228m-20.742,-78.529c13.943,-1.469 35.567,1.246 48.819,4.889c-0.022,21.713 1.805,42.501 3.626,64.111c-16.205,-2.522 -33.566,-3.412 -49.673,-0.015c-13.731,2.496 -28.354,8.68 -40.63,15.114c1.123,-6.797 1.959,-16.371 2.847,-23.453a2006,2006 0 0 0 6.396,-56.075c8.042,-2.365 20.274,-3.841 28.615,-4.571m27.573,169.503c9.517,-1.101 26.341,0.59 35.63,1.711a1128,1128 0 0 0 4.69,41.159c-27.551,9.729 -47.108,12.231 -76.113,7.279c-15.539,-2.531 -29.812,-9.482 -44.134,-15.789c0.242,-4.511 0.489,-7.628 1.241,-12.046c5.66,-2.998 11.426,-5.015 17.231,-7.501c20.898,-8.95 38.923,-13.024 61.455,-14.813m-17.353,-268.949c9.54,5.662 19.102,12.299 28.651,18.093l0.427,0.264a82,82 0 0 0 2.727,1.708l0.25,0.238c2.216,1.501 4.855,3.032 7.158,4.514c4.712,3.216 3.182,2.322 3.052,8.583c-1.595,-0.564 -3.209,-1.027 -4.829,-1.507c-2.091,-0.695 -4.23,-1.229 -6.344,-1.847l-0.113,8.153c-0.064,1.225 -0.074,1.201 0.135,2.446l-0.259,21.115a559,559 0 0 1 16.821,5.3c0.723,0.606 0.561,11.294 0.931,13.429c0.43,2.479 -0.567,8.229 -0.48,11.537c0.012,1.399 0.003,1.557 -0.261,2.929c-2.592,1.344 -5.643,-0.908 -8.962,-1.808a169.7,169.7 0 0 0 -30.932,-5.131c-18.58,-1.27 -39.42,1.704 -56.675,8.758l-0.142,-17.153c0.025,-1.027 0.018,-1.883 0.006,-2.906q0.074,-1.682 0.103,-3.364l-0.085,-5.412c6.104,-2.212 12.017,-4.396 18.234,-6.279c2.071,-0.562 4.682,-1.163 6.781,-1.483l0.869,-0.146c1.198,-0.214 4.947,-0.719 5.868,-1.098c10.195,-0.774 19.889,-1.507 30.167,-0.42c1.532,0.162 2.125,0.158 3.663,0.109c2.391,0.37 4.475,0.861 6.802,1.424c-0.062,-2.415 -0.175,-4.357 -0.327,-6.757c1.2,-4.75 -0.185,-17.405 0.072,-22.801c0.011,-0.223 0.168,-1.849 -0.218,-1.927c-3.925,-0.796 -7.903,-1.192 -11.919,-1.466c-4.561,-0.49 -11.387,-0.419 -16.07,-0.311a52,52 0 0 0 -5.716,0.278c-2.939,0.214 -4.731,0.49 -7.497,0.767c-1.63,0.264 -3.198,0.402 -4.771,0.667c-2.783,0.917 -5.245,1.029 -8.077,1.605c-1.594,0.46 -3.212,0.935 -4.848,1.223c-2.267,0.767 -4.028,1.566 -6.218,2.357c-0.149,-2.686 -0.149,-4.478 -0.067,-7.162c8.803,-4.687 15.37,-9.73 23.733,-14.699c2.453,-1.599 17.397,-10.749 18.36,-11.82" fill="#1a2b4a"/>
   <path d="m234.43127,55.65519l1.13,1.02c0.042,0.614 0.455,4.959 0.654,5.576c0.888,2.333 -0.434,6.227 1.106,8.054c0.418,0.496 4.358,0.582 5.032,-0.117c4.154,-4.315 -2.408,-8.246 0.978,-10.078c0.526,-0.285 0.745,-1.196 0.921,-1.68l0.634,-0.165l0.197,5.438c5.086,2.535 10.323,4.564 15.39,7.041c35.055,17.135 65.255,48.98 77.593,86.177a151.5,151.5 0 0 1 -8.225,114.93c-3.216,6.329 -8.366,14.912 -12.915,20.261l-0.815,-1.02l-0.054,-0.251c-0.548,-1.882 -2.776,-4.144 -4.201,-5.527c-1.735,-1.684 -1.478,-1.434 -3.99,-1.509a132,132 0 0 0 6.616,-10.028c20.064,-33.857 23.786,-77.568 10.891,-114.657c-11.065,-31.826 -33.344,-56.455 -62.183,-73.274c-0.064,-0.24 -0.06,-0.35 -0.208,-0.539c0.45,-3.191 0.318,-4.881 0.344,-8.1c-6.281,-1.82 -11.295,-5.417 -11.464,4.425l-0.869,0.438a559,559 0 0 0 -16.821,-5.3l0.259,-21.115z" fill-opacity="0.008" fill="#fff"/>
   <path d="m286.41427,342.79319c-1.654,-9.884 -0.616,-18.675 5.305,-27.216a25.23,25.23 0 0 1 33.102,-7.677c0.361,0.201 0.577,0.713 0.761,1.073c-1.098,2.018 -17.544,15.513 -20.334,17.825c3.598,5.519 10.722,17.03 14.931,21.651l0.536,0.598c7.691,-6.017 16.362,-11.489 23.529,-17.183c0.568,10.18 0.69,17.205 -6.383,25.635c-8.545,10.185 -21.562,10.555 -33.515,7.511c-7.811,3.743 -14.488,10.761 -19.833,13.425c-3.404,-5.526 -6.338,-10.45 -9.322,-16.278c-1.488,-2.907 -3.12,-6.627 -4.742,-9.279c6.382,-3.51 10.348,-5.491 15.965,-10.085" fill-opacity="0.988" fill="#07f3e6"/>
   <path d="m225.56427,54.58219c1.251,2.901 0.7,3.789 0.087,6.723l-0.101,0.496c-1.263,-2.666 -0.817,-4.555 0.014,-7.219" fill-opacity="0.776" fill="#fff"/>
   <path d="m180.43427,43.50619c-0.082,1.809 -0.071,3.091 -0.011,4.906a1485,1485 0 0 0 -0.097,18.033c-0.035,3.015 -0.048,5.576 0.054,8.596l-0.869,0.146c-2.099,0.32 -4.71,0.921 -6.781,1.483c-0.211,-3.189 -0.128,-6.285 -0.334,-9.385a310,310 0 0 0 -0.037,-11.035l0.11,-1.372c-0.143,-3.113 -0.08,-6.604 -0.112,-9.767c2.832,-0.576 5.294,-0.688 8.077,-1.605" fill-opacity="0.988" fill="#07f3e6"/>
   <path d="m251.86227,81.63219c1.035,-0.928 1.097,-1.95 1.3,-2.27c1.537,-2.422 5.481,1.728 -1.147,3.302c-0.007,2.69 -0.349,4.397 0.228,6.947c3.4,-1.268 2.005,0.121 4.13,0.093c2.915,-1.991 2.838,-11.331 6.609,-4.397c0.148,0.189 0.144,0.299 0.208,0.539c-0.39,2.41 -0.2,3.981 -0.249,6.435c-0.068,-0.154 -0.649,-1.64 -0.765,-1.718c-0.261,0.282 -0.424,0.679 -0.6,1.032c-2.165,4.683 -3.729,10.103 -7.179,14.086c-0.392,0.452 -1.159,-0.647 -2.351,0.245l-0.602,1.11c-0.087,-3.308 0.91,-9.058 0.48,-11.537c-0.37,-2.135 -0.208,-12.823 -0.931,-13.429l0.869,-0.438z" fill-opacity="0.259" fill="#fff"/>
   <path d="m181.75027,19.67519a2.288,2.288 0 1 1 2.102,4.065a2.288,2.288 0 0 1 -2.102,-4.065" fill-opacity="0.51" fill="#fff"/>
   <path d="m102.21827,103.90919c0.559,1.314 0.297,2.032 0.93,3.671c1.116,2.888 1.621,8.249 -0.202,10.92c-0.77,1.129 -1.318,3.467 -1.477,4.708c-1.254,2.119 -2.935,3.94 -4.345,6.373c-1.26,-4.497 -4.348,-4.25 -0.54,-9.835c0.962,-1.411 -0.447,-6.373 -0.397,-8.986c0.761,-1.196 4.835,-5.632 6.031,-6.851" fill-opacity="0.463" fill="#fff"/>
   <path d="m241.42227,49.85219l0.338,0.659c2.269,4.69 5.994,0.551 7.956,-2.08c1.755,-2.352 0.686,0.676 2.922,-1.024c0.217,0.316 0.382,0.664 0.572,0.997c0.379,0.665 1.732,1.619 2.455,1.815c0.697,0.188 1.597,0.055 2.286,0.029l-0.068,1.052c-5.803,2.47 -6.241,-2.124 -4.93,5.977c-2.268,0.069 -6.102,-0.339 -7.791,0.439c-1.344,-3.763 -5.306,0.644 -3.74,-7.864" fill-opacity="0.71" fill="#fff"/>
   <path d="m261.57627,91.59519c0.231,6.017 -2.984,11.386 -1.157,15.409a4.73,4.73 0 0 1 0.041,3.746c-0.586,1.436 -1.037,1.629 -2.271,2.127c-5.182,2.094 -3.499,-4.479 -6.143,-6.951c1.192,-0.892 1.959,0.207 2.351,-0.245c3.45,-3.983 5.014,-9.403 7.179,-14.086" fill-opacity="0.122" fill="#fff"/>
   <path d="m142.86827,93.05119c0.905,-2.328 2.592,-7.296 0.3,-9.463c-3.427,-3.002 2.498,-5.238 4.009,-3.592c1.982,2.161 1.799,10.938 7.404,8.365a126,126 0 0 1 -0.103,3.364c-4.98,1.718 -2.561,-0.802 -6.821,-1.79c-0.534,-0.124 -3.581,3.231 -4.814,4.266l0.025,-1.15z" fill-opacity="0.596" fill="#fff"/>
   <path d="m90.39527,117.91019c1.829,1.599 2.639,1.273 2.307,3.615c-1.068,7.525 -1.392,4.605 3.968,8.124c-0.509,0.854 -1.713,2.876 -2.439,3.556c-0.962,-0.632 -1.202,-1.042 -2.15,-0.272c-1.95,-1.304 -1.347,-0.157 -3.338,-0.435l0.007,-0.01c-1.111,-2.819 3.18,-5.333 -0.393,-5.657c0.482,-2.867 0.688,-2.973 -0.361,-5.576c0.854,-1.211 1.584,-2.051 2.399,-3.345" fill-opacity="0.125" fill="#fff"/>
   <path d="m303.48127,294.91419c2.308,-0.813 1.925,-3.84 6.661,-4.041c0.901,-0.038 2.991,-1.38 3.403,0.778c-1.156,5.478 1.225,6.886 2.633,0.455l-0.067,-1.014l0.815,1.02l0.098,0.908c-0.896,2.233 -0.802,3.005 -2.496,5.007c-2.079,-0.268 -4.162,-0.314 -6.24,-0.525c-3.981,-0.404 -4.482,1.456 -4.807,-2.588" fill-opacity="0.322" fill="#fff"/>
   <path d="m172.39627,67.28519c-0.664,-0.261 -0.645,-0.035 -0.944,-0.632c-0.515,-1.117 -1.883,1.917 -2.549,1.118c-2.143,-2.569 -5.85,-10.77 -0.119,-11.758c1.331,-0.23 1.612,0.977 2.423,0.947c0.665,-0.709 0.267,-0.388 1.152,-0.71q0.117,5.518 0.037,11.035m-3.149,-1.206c1.826,-1.985 2.324,-7.423 -0.733,-9.16l-0.491,0.523c-2.607,2.547 -0.344,5.777 1.224,8.637" fill-opacity="0.682" fill="#fff"/>
   <path d="m168.51427,56.91919c3.057,1.737 2.559,7.175 0.733,9.16c-1.568,-2.86 -3.831,-6.09 -1.224,-8.637l0.491,-0.523z" fill-opacity="0.616" fill="#fff"/>
   <path d="m142.84327,94.20119c1.233,-1.035 4.28,-4.39 4.814,-4.266c4.26,0.988 1.841,3.508 6.821,1.79a76,76 0 0 1 -0.006,2.906c-1.899,-2.224 -1.301,4.846 -1.294,5.485c-0.077,0.136 -1.034,2.399 -1.492,1.988s-0.761,-2.552 -0.773,-3.111c-0.042,-1.956 -1.414,-5.36 -3.804,-3.379c-1.727,1.377 -2.022,1.65 -4.205,1.134l-0.061,-2.547z" fill-opacity="0.216" fill="#fff"/>
   <path d="m96.18727,110.76019c-0.05,2.613 1.359,7.575 0.397,8.986c-3.808,5.585 -0.72,5.338 0.54,9.835l-0.454,0.068c-5.36,-3.519 -5.036,-0.599 -3.968,-8.124c0.332,-2.342 -0.478,-2.016 -2.307,-3.615c1.616,-2.198 3.949,-5.211 5.792,-7.15" fill-opacity="0.302" fill="#fff"/>
   <path d="m198.41827,41.79419c4.683,-0.108 11.509,-0.179 16.07,0.311c-0.457,0.101 -4.299,0.794 -4.508,0.872l-0.002,0.052c0.165,0.174 0.458,0.29 0.655,0.393c-2.47,0.73 -3.547,-0.312 -5.719,-0.269c-0.799,0.015 -7.281,1.082 -7.47,1.25c-5.063,4.536 6.525,3.882 8.497,3.885l1.141,-1.218c0.687,-0.741 1.081,-1.644 1.649,-2.242l-0.07,-0.106c0.295,-0.702 1.492,0.575 1.75,0.777c-4.661,5.342 -2.944,4.851 -11.228,4.289c-7.113,-0.481 -0.357,-3.898 -5.049,-4.682l0.021,0.087l-0.022,-0.062c0.024,-0.031 2.732,-1.472 3.269,-1.866c0.915,0.069 1.279,0.113 2.193,0.004l0.331,-0.278l0.115,0.022c-0.079,-0.212 -1.52,-1.15 -1.623,-1.219" fill-opacity="0.678" fill="#fff"/>
   <path d="m205.94127,48.28819c-1.972,-0.003 -13.56,0.651 -8.497,-3.885c0.189,-0.168 6.671,-1.235 7.47,-1.25c2.172,-0.043 3.249,0.999 5.719,0.269c0.034,0.954 -0.03,1.089 -0.222,2.077c-0.258,-0.202 -1.455,-1.479 -1.75,-0.777l0.07,0.106c-0.568,0.598 -0.962,1.501 -1.649,2.242l-1.141,1.218z" fill-opacity="0.639" fill="#fff"/>
   <path d="m241.38127,25.55019c1.668,0.843 4.655,2.799 6.262,3.945c-3.441,3.812 -1.869,7.318 -5.113,10.332c-2.303,-1.482 -4.942,-3.013 -7.158,-4.514c4.046,-4.196 6.034,2.226 6.822,2.726l0.036,-0.01c1.684,-2.701 0.162,-3.948 1.962,-6.813c1.179,-1.878 -5.277,-0.797 -2.811,-5.666" fill-opacity="0.757" fill="#fff"/>
   <path d="m257.92027,49.88319c-4.198,-0.358 -3.539,-5.158 -4.551,-8.855c0.013,0.047 0.467,-3.487 0.56,-3.633c0.303,-0.475 3.951,-0.554 4.475,-0.621c-0.426,4.29 -0.104,8.764 -0.484,13.109" fill-opacity="0.816" fill="#fff"/>
   <path d="m304.30327,288.58619c4.357,1.272 4.183,-4.147 6.833,-1.575c1.894,1.838 1.187,3.257 4.921,3.83l0.054,0.251l0.067,1.014c-0.966,-0.067 -1.678,-0.254 -2.633,-0.455c-0.412,-2.158 -2.502,-0.816 -3.403,-0.778c-4.736,0.201 -4.353,3.228 -6.661,4.041c-0.432,-0.87 -0.815,-3.19 -0.91,-4.193c0.591,-0.925 0.939,-1.36 1.732,-2.135" fill-opacity="0.169" fill="#fff"/>
   <path d="m180.32627,66.44519c3.522,1.886 3.78,0.425 7.421,1.358c1.562,0.925 -2.766,1.333 -3.077,1.18c-0.566,-0.159 -3.063,0.633 -2.116,1.626c1.218,1.277 5.01,-1.472 5.128,-1.417c2.48,1.149 -1.515,1.872 -1.434,4.751c-0.921,0.379 -4.67,0.884 -5.868,1.098c-0.102,-3.02 -0.089,-5.581 -0.054,-8.596" fill-opacity="0.616" fill="#fff"/>
   <path d="m302.57127,290.72119c0.095,1.003 0.478,3.323 0.91,4.193c0.325,4.044 0.826,2.184 4.807,2.588c2.078,0.211 4.161,0.257 6.24,0.525c-0.25,0.28 -1.262,1.768 -1.418,1.778c-1.521,0.104 -11.774,0.433 -12.159,-0.328c0.248,-1.287 0.556,-5.92 0.742,-7.581c0.258,-0.375 0.6,-0.807 0.878,-1.175" fill-opacity="0.027" fill="#fff"/>
   <path d="m172.36527,21.55619c1.049,-0.739 2.167,-1.351 3.285,-1.98l-0.047,1.017c0.035,0.472 0.097,2.723 0.389,3.167c0.894,1.355 -1.435,7.846 -3.828,6.241c-7.054,-4.73 2.36,-1.903 0.201,-8.445" fill-opacity="0.486" fill="#fff"/>
   <path d="m220.07827,73.63219c0.091,-0.263 0.522,-2.701 0.462,-2.937c-0.45,-1.768 5.94,-2.431 6.013,-2.396c0.152,2.4 0.265,4.342 0.327,6.757c-2.327,-0.563 -4.411,-1.054 -6.802,-1.424" fill-opacity="0.102" fill="#fff"/>
   <path d="m257.88327,51.30019c0.216,2.215 0.189,3.999 0.219,6.197a61,61 0 0 0 -5.149,-0.22c-1.311,-8.101 -0.873,-3.507 4.93,-5.977" fill-opacity="0.059" fill="#fff"/>
   <path d="m307.86627,283.80519c2.512,0.075 2.255,-0.175 3.99,1.509c1.425,1.383 3.653,3.645 4.201,5.527c-3.734,-0.573 -3.027,-1.992 -4.921,-3.83c-2.65,-2.572 -2.476,2.847 -6.833,1.575c1.11,-1.559 2.404,-3.236 3.563,-4.781" fill-opacity="0.051" fill="#fff"/>
   <path d="m167.50927,46.33419c1.636,-0.288 3.254,-0.763 4.848,-1.223c0.032,3.163 -0.031,6.654 0.112,9.767c-1.872,0.256 -0.815,1.112 -2.351,-0.207c0.238,-0.982 1.08,-2.826 0.463,-3.714c-0.027,0.255 -0.021,0.565 -0.242,0.737c-0.351,-0.526 -0.855,-1.977 -1.372,-2.194c-1.877,-0.79 0.728,-0.98 -1.458,-3.166" fill-opacity="0.773" fill="#fff"/>
   <path d="m180.43427,43.50619c1.573,-0.265 3.141,-0.403 4.771,-0.667c-0.368,4.891 -0.877,4.269 -4.782,5.573c-0.06,-1.815 -0.071,-3.097 0.011,-4.906" fill-opacity="0.455" fill="#fff"/>
   <path d="m148.95327,51.28619c0.215,-1.092 0.389,-2.163 0.711,-3.226l0.011,0.017c0.894,0.388 4.889,4.424 2.665,6.094c-1.349,1.014 -2.44,0.946 -3.395,-0.386l0.008,-2.499z" fill-opacity="0.525" fill="#fff"/>
   <path d="m252.01527,82.66419c2.665,2.577 2.964,3.675 0.228,6.947c-0.577,-2.55 -0.235,-4.257 -0.228,-6.947" fill-opacity="0.09" fill="#fff"/>
   <path d="m183.77527,14.28519a76,76 0 0 1 4.007,-2.728l-0.021,0.503c-0.005,5.068 -0.635,3.786 -3.986,2.225" fill-opacity="0.612" fill="#fff"/>
   <path d="m313.54527,291.65119c0.955,0.201 1.667,0.388 2.633,0.455c-1.408,6.431 -3.789,5.023 -2.633,-0.455" fill-opacity="0.573" fill="#fff"/>
   <path d="m238.75327,23.59519a74,74 0 0 0 2.476,1.718c-1.023,1.772 -3.049,1.864 -4.243,0.584l0.011,-0.168c0.23,-0.233 0.463,-0.214 0.774,-0.237c0.058,-0.05 0.779,-1.582 0.982,-1.897" fill-opacity="0.749" fill="#fff"/>
   <path d="m192.70227,42.07219a52,52 0 0 1 5.716,-0.278c0.103,0.069 1.544,1.007 1.623,1.219l-0.115,-0.022l-0.331,0.278c-0.914,0.109 -1.278,0.065 -2.193,-0.004c-2.113,-0.729 -2.525,-0.708 -4.7,-1.193" fill-opacity="0.706" fill="#fff"/>
   <path d="m232.39527,33.36719c1.611,-1.816 4.374,-0.47 2.727,1.708a82,82 0 0 1 -2.727,-1.708" fill-opacity="0.667" fill="#fff"/>
  </g>
 </g>
</svg>